<?xml version="1.0" encoding="utf-8"?>
<!-- Generator: Adobe Illustrator 17.1.0, SVG Export Plug-In . SVG Version: 6.00 Build 0)  -->
<!DOCTYPE svg PUBLIC "-//W3C//DTD SVG 1.1//EN" "http://www.w3.org/Graphics/SVG/1.1/DTD/svg11.dtd">
<svg version="1.1" id="Layer_1" xmlns="http://www.w3.org/2000/svg" xmlns:xlink="http://www.w3.org/1999/xlink" x="0px" y="0px"
	 viewBox="0 0 350 558" style="enable-background:new 0 0 350 558;" xml:space="preserve">
<style type="text/css">
	.st0{fill:#FFFFFF;stroke:#5B5A59;stroke-width:3;stroke-miterlimit:10;}
	.st1{fill:#333333;}
	.st2{fill:#754C29;stroke:#5B5A59;stroke-width:3;stroke-miterlimit:10;}
	.st3{opacity:0.1;fill:#333333;}
	.st4{fill:#E2D969;stroke:#5B5A59;stroke-width:3;stroke-miterlimit:10;}
	.st5{fill:#E5DFBE;stroke:#5B5A59;stroke-width:3;stroke-miterlimit:10;}
	.st6{stroke:#5B5A59;stroke-miterlimit:10;}
	.st7{fill:#5B5A59;}
	.st8{fill:#ADACAC;}
	.st9{opacity:0.17;fill:#FFFFFF;}
	.st10{fill:#B7B197;}
	.st11{fill:none;stroke:#000000;stroke-width:5;stroke-linecap:round;stroke-miterlimit:10;}
</style>
<path class="st0" d="M292.1,310.6c0,0.2,0,0.5,0,0.7l-0.4,28c-0.1,5.5,4.3,10.1,9.8,10.2l15,0.2c5.5,0.1,10.1-4.3,10.2-9.8l0.4-28
	c0-0.4,0-0.9-0.1-1.3H292.1z"/>
<g>
	<g>
		<path class="st1" d="M198.4,271.1c0.2,12.1,4.5,22.4,9.1,33.4c4.3,10.5,9,20.9,16.6,29.6c7.7,8.8,18.5,13.1,30,11.5
			c11.9-1.7,22.5-9.8,32.6-15.8c2.8-1.7,0.3-6-2.5-4.3c-8.8,5.2-17.3,11.2-27.1,14.3c-11.8,3.7-22.6-1.3-30.4-10.3
			c-6.9-7.8-11-18.1-14.9-27.7c-4.2-10.1-8.2-19.6-8.3-30.7C203.3,267.9,198.3,267.9,198.4,271.1L198.4,271.1z"/>
	</g>
</g>
<ellipse class="st0" cx="122.4" cy="326.5" rx="114.2" ry="124.5"/>
<path class="st2" d="M124.3,403.6c29.8,6.7,58.5,8.4,83.2,5.9c2.2-2.6,4.3-5.4,6.2-8.2c-26,3.8-57.2,2.6-89.7-4.8
	c-53.3-12-96.3-37.3-115.7-64.5c0.1,3.1,0.4,6.3,0.7,9.3C29.8,367.8,72.3,391.9,124.3,403.6z"/>
<path class="st3" d="M143.9,222.6l15,14l-8,24.5c0,0,4.5,55.5,2.5,74c-2,18.5-11.5,60.5-11.5,60.5l11.5,14l11.5-5.5
	c0,0,10.5-41,12-65c1.5-24-2-83-2-83l-13-19.5l9-22.5L143.9,222.6z"/>
<path class="st4" d="M149.9,222.6l15,14l-8,24.5c0,0,4.5,55.5,2.5,74c-2,18.5-11.5,60.5-11.5,60.5l11.5,14l11.5-5.5
	c0,0,10.5-41,12-65c1.5-24-2-83-2-83l-13-19.5l9-22.5L149.9,222.6z"/>
<path class="st3" d="M161.6,209.4c-17.5-2.3-40.7-5.2-54.7-6.3c-55.8,8.3-98.7,60.3-98.7,123.4c0,27.9,8.4,53.6,22.6,74.4
	c13.5-9.1,34.3-14.3,30.2-23.2c-6-13-28.3-55-26-89c2-30,28-59,37-63c9-4,30,11,52,10c15.5-0.7,44-7,52.4-19
	C171.6,213.9,166.7,211.5,161.6,209.4z"/>
<path class="st5" d="M238.8,137.1c5.7,40.9-36.1,80.5-93.4,88.6S36.8,207.1,31.1,166.2s36.1-80.5,93.4-88.6S233,96.2,238.8,137.1z"
	/>
<path class="st1" d="M196,168.3c0.6-25.6-8.9-46.3-23.1-48c-15.8-1.8-31.4,20.7-34.8,50.4c-1,8.6-0.8,16.8,0.2,24.2L196,168.3z"/>
<g>
	<g>
		<path class="st1" d="M76.4,132.9c0,2.8,0.1,5.3-1,8c1.5-0.2,3-0.4,4.6-0.6c-3.7-8.2-1.4-17.5-2.4-26.1c-0.3-2.4-3.3-3.6-4.7-1.3
			c-3.9,6.6-4.5,13.7-5.5,21.1c-1,7.6-4.7,14.4-4.7,22.2c1.7,0,3.3,0,5,0c0.1-14.5,1.2-29.2-3.1-43.3c-0.6-2.1-3.4-2.5-4.6-0.6
			c-3.9,6.6-4.9,14-5.3,21.5c-0.2,4-0.3,8-0.5,12.1c-0.2,3.5,0.2,8.2-1.2,11.3c1.5,0.2,3,0.4,4.6,0.6c-1.8-7.5-0.8-15.6-0.9-23.3
			c-0.1-7.3-0.3-14.6-1.3-21.9c-0.4-2.5-4.3-2.3-4.8,0c-0.8,3.8-2.3,7.3-3.3,11c-1.3,4.9-2.5,9.9-3.8,14.9c-2.4,8.7-7.2,17.7-7,26.9
			c0.1,2.7,4.5,3.5,4.9,0.7c1.1-7.6,1.1-15.1,0.9-22.8c-0.1-3.7-0.2-7.4-0.2-11c0-3.2,0.3-6-0.8-9c-0.6-1.7-2.8-2.6-4.2-1.1
			c-2.3,2.5-3.4,5.3-4.3,8.6c-1.2,4.4-2.6,8.6-4.1,12.9c-1.7,5.1-5.7,11.3-3.9,16.8c0.7,2.2,4.3,2.6,4.8,0
			c1.8-8.2,0.4-16.6,0.3-24.9c0-3.2-5-3.2-5,0c0.1,7.8,1.5,15.9-0.2,23.6c1.6,0,3.2,0,4.8,0c-1.4-4.2,2.6-10.2,3.9-14.2
			c1.1-3.3,2.2-6.6,3.2-9.9c1-3.3,1.3-6.8,3.8-9.4c-1.4-0.4-2.8-0.7-4.2-1.1c1,2.5,0.7,5.1,0.6,7.7c-0.1,3.7,0.1,7.4,0.2,11
			c0.2,7.2,0.3,14.3-0.7,21.5c1.6,0.2,3.3,0.4,4.9,0.7c-0.2-8.5,4.5-17.4,6.8-25.5c1.2-4.3,2.3-8.7,3.4-13c1.1-4.4,2.8-8.5,3.8-12.9
			c-1.6,0-3.2,0-4.8,0c1.1,8,1.1,16.1,1.1,24.1c0.1,7-0.6,14.2,1,21.1c0.5,2,3.7,2.6,4.6,0.6c2.5-5.7,2-13.6,2.2-19.8
			c0.3-8.6,0.4-17.5,4.9-25.1c-1.5-0.2-3-0.4-4.6-0.6c4.2,13.6,2.9,27.9,2.9,41.9c0,3.2,5,3.2,5,0c0-7.2,3.3-13.8,4.5-20.8
			c1.2-7,1.3-13.7,5-20c-1.6-0.4-3.1-0.8-4.7-1.3c1.1,9.7-1.1,19.4,3,28.6c1,2.2,3.9,1.1,4.6-0.6c1.3-3,1.2-6.1,1.2-9.3
			C81.4,129.7,76.4,129.7,76.4,132.9L76.4,132.9z"/>
	</g>
</g>
<g>
	<g>
		<path class="st1" d="M99.5,94.6c0.3-5.6,1.9-11.3,4.2-16.4c1.2-2.5,2.7-5,5-6.7c4.8-3.6,10.6,2,12.8,6.1c0.8,1.4,2.9,0.2,2.2-1.3
			c-4.1-7.6-13-11.5-19.1-4.2c-4.9,5.9-7.1,15-7.5,22.5C96.9,96.2,99.4,96.2,99.5,94.6L99.5,94.6z"/>
	</g>
</g>
<g>
	<g>
		<path class="st1" d="M133.8,89.6c-1.3-5.4-0.4-11.4,1.5-16.5c1.1-3.2,3.4-6.4,7-6.8c5.3-0.7,9.1,6.4,10.8,10.4
			c0.6,1.5,3,0.8,2.4-0.7c-3-7.2-10.7-16.6-18.7-9.7c-6,5.1-7,17-5.3,24.1C131.8,91.8,134.2,91.2,133.8,89.6L133.8,89.6z"/>
	</g>
</g>
<path class="st6" d="M207.9,409c-24.8,2.8-53.8,1.3-83.9-5.5c-52.8-11.9-95.6-36.8-115.2-63.8c1.8,18.8,7.5,36.4,16.1,51.7
	c3.2,11.9,17.3,63.3,22.3,76.8c5.7,15.3,26.3,63,28,64.3c1.7,1.3-21.3,11.1-24.3,13.7c-3,2.6-9,13.7,1.7,10
	c10.7-3.7,41.3-17,41.3-17s-14.7-36.3-14.3-50.3c0.3-10.6,12.4-30.8,22.7-39.9c6.5,1.3,13.2,1.9,20.1,1.9c4.9,0,9.8-0.3,14.5-1
	c0.2,0.2,0.5,0.5,1,0.7c9.7,4.3,11.3,22,8,41.7c-3.3,19.7-16,44.7-11,43.7s18.7,0.3,40.3,1.7c21.7,1.3,5.7-9.7,5.7-9.7
	s-29-1.7-26.3-4.3c2.7-2.7,16.3-32.3,24.7-46.3c8.3-14,2-42,2-42s-2,0.4-5.2,1.1C188.1,429.4,198.9,420.1,207.9,409z"/>
<g>
	<g>
		<path class="st7" d="M292.4,316.1c-7.1-0.3-17.7,4-16.7,12.6c1.1,9.5,12.6,13.5,20.5,10.1c2.9-1.3,0.4-5.6-2.5-4.3
			c-4.9,2.1-12.4-0.8-13-6.5c-0.6-5.2,8.2-7,11.8-6.8C295.6,321.3,295.6,316.3,292.4,316.1L292.4,316.1z"/>
	</g>
</g>
<g>
	<g>
		<path class="st1" d="M58.2,244.8C48,253.7,34.6,259,23.3,266.2c-9.2,5.8-21.5,14.2-21.9,26.3c-0.5,11.5,13.4,19.8,21.8,24.8
			c11.6,7,25.2,12,35.6,20.8c-0.1-1-0.3-2-0.4-3c-3.4,7-12,10.4-18.7,13.4c-2.9,1.3-0.4,5.6,2.5,4.3c7.5-3.4,16.7-7.3,20.5-15.2
			c0.5-1,0.5-2.3-0.4-3c-9.2-7.8-20.9-12.6-31.4-18.5c-8.3-4.7-24.3-12.4-24.6-23.6c-0.2-5.4,4.4-10.1,8-13.4
			c5-4.6,10.9-8.3,16.7-11.8c10.2-6.1,21.7-11,30.7-18.9C64.2,246.3,60.6,242.7,58.2,244.8L58.2,244.8z"/>
	</g>
</g>
<g>
	<g>
		<path class="st8" d="M298.5,299.8c1.1-3.8,0.3-6.6-1.7-10c-2.9-5-4.1-10.1-1.1-15.2c5.8-10.1,9.5-20.3,3.7-31.2
			c-0.4-0.7-1.5-0.1-1.1,0.6c3.5,6.6,3.6,12.9,1.2,19.9c-1.6,4.6-4.6,8.4-6.4,12.8c-3.3,8.2,6.4,14.9,4.1,22.8
			C297,300.2,298.2,300.6,298.5,299.8L298.5,299.8z"/>
	</g>
</g>
<g>
	<g>
		<path class="st8" d="M317.3,296.2c-4.9-4.8-2.4-8.8-0.5-14.2c1.2-3.3,0.6-6.1-1.5-8.8c-0.5-0.6-1.4,0.3-0.9,0.9
			c3.7,4.8,0.2,9.1-1.2,13.9c-1,3.6,0.7,6.6,3.2,9.1C317,297.6,317.9,296.7,317.3,296.2L317.3,296.2z"/>
	</g>
</g>
<g>
	<g>
		<path class="st8" d="M315.4,262.9c2.7-3.7,2.5-7.9,0-11.6c-0.4-0.7-1.5,0-1.1,0.6c2.2,3.4,2.4,7,0,10.4
			C313.8,263,314.9,263.6,315.4,262.9L315.4,262.9z"/>
	</g>
</g>
<path class="st3" d="M109.7,80.5C60.2,92.8,25.9,129,31.1,166.2c3.8,27,27.3,47.7,59.4,56.4c-11.7-8.6-26.3-21.8-37.5-36
	c-15-19,56-17,38-20c-18-3-36-30-23-49C75.7,106.3,95.2,91,109.7,80.5z"/>
<path class="st9" d="M193.9,414.6c0,0-40.4,1.1-68-5.3c-28.3-6.7-54-16.7-58-18.7s6.7,23.3,18.3,40c13.8,19.7,41,16,49.6,14
	S181.2,429.3,193.9,414.6z"/>
<path class="st9" d="M176.9,439.6c0,0-10.5,6-13,6.5c-2.5,0.5,3.5,18.5,2.5,26.5c-1,8-17,50.5-17,50.5l2,0.5c0,0,25.5-44,27.5-54.5
	C180.9,458.6,180.4,448.1,176.9,439.6z"/>
<path class="st3" d="M292.1,310.6c0,0.2,0,0.5,0,0.7l-0.4,28c-0.1,5.5,4.3,10.1,9.8,10.2l12.5,0.2c-3.5-2.5-7.2-5.8-10.8-9.4
	c-4.6-4.6-2.4-21.8-1.1-29.7H292.1z"/>
<path class="st10" d="M92.3,166.4c0,0,6.7-9.2,15.9-10.3c9.2-1.1,18.3,7.7,22,9.4C133.9,167.3,102.1,153.5,92.3,166.4z"/>
<path class="st10" d="M229.5,155.6c0,0-5.3-6.9-12.4-7.5c-7-0.6-13.8,6.3-16.6,7.7C197.8,157.3,221.8,146,229.5,155.6z"/>
<ellipse class="st0" cx="109.4" cy="143.1" rx="14.8" ry="14.8"/>
<circle class="st0" cx="214.9" cy="139.3" r="9.7"/>
<g>
	<g>
		<path class="st7" d="M111.5,391c0.1-7.9,2-15.6,2.4-23.5c0.4-9.1,0.5-18.1,0.4-27.2c-0.1-16.8,0.5-33.7-1.7-50.4
			c-2-14.9-7.1-28.7-13.5-42.3c-2.9-6.1-6.4-11.8-11.2-16.6c-5.7-5.5-12.8-10.2-19.3-14.7c-2.7-1.8-5.2,2.5-2.5,4.3
			c6.3,4.3,12.6,8.8,18.3,13.9c5.1,4.6,8.3,10.8,11.1,16.9c6.6,14.1,11.1,28.6,12.8,44c1.7,15.4,1,31.2,1,46.6
			c0,8.4-0.1,16.8-0.4,25.2c-0.3,7.9-2.3,15.6-2.4,23.5C106.4,394.2,111.4,394.2,111.5,391L111.5,391z"/>
	</g>
</g>
<g>
	<g>
		<path class="st7" d="M202.5,402.6c1.9-3.7,2.7-8,3.6-12c1.7-7.4,2.9-14.9,4.1-22.4c2.3-14.8,4.4-29.9,5-44.9
			c0.6-15.5-1.1-31.3-3.5-46.6c-2.5-16.3-6.1-34.6-16.2-48.1c-1.4-1.9-4.7,0-3.2,1.9c9.7,12.9,13.1,30.2,15.6,45.8
			c2.5,15.2,3.9,30.9,3.6,46.2c-0.3,14.5-2.5,29.1-4.7,43.5c-1.1,7.3-2.4,14.6-3.9,21.8c-0.9,4.2-1.6,9.1-3.6,12.9
			C198.2,402.9,201.4,404.7,202.5,402.6L202.5,402.6z"/>
	</g>
</g>
<line class="st11" x1="271.9" y1="79" x2="346.8" y2="4"/>
</svg>
